<?xml version="1.0" encoding="utf-8"?>
<!-- Generator: Adobe Illustrator 19.1.0, SVG Export Plug-In . SVG Version: 6.00 Build 0)  -->
<svg version="1.1" id="Layer_1" xmlns="http://www.w3.org/2000/svg" xmlns:xlink="http://www.w3.org/1999/xlink" x="0px" y="0px"
	 viewBox="0 0 372 380.8" enable-background="new 0 0 372 380.8" xml:space="preserve">
<g>
	<g>
		<path fill="#8E8E8E" d="M62.4,158.8v35.1h-4.5v-35.1H45.1v-4.3h30.2v4.3H62.4z"/>
		<path fill="#8E8E8E" d="M105.4,175.6v18.3H101v-17.1c0-5.2-3.2-8.3-8.4-8.3c-6.3,0.1-10,4.5-10,10.9v14.6h-4.4v-41.8h4.4v18.7
			c2-4.6,6.1-6.8,11.5-6.8C101.2,164,105.4,168.4,105.4,175.6z"/>
		<path fill="#8E8E8E" d="M120.2,155.7c0,1.7-1.2,3-2.9,3s-2.9-1.3-2.9-3c0-1.7,1.2-3,2.9-3S120.2,154,120.2,155.7z M115.2,193.9
			v-29.7h4.3v29.7H115.2z"/>
		<path fill="#8E8E8E" d="M157.3,175.6v18.3h-4.4v-17.1c0-5.2-3.2-8.3-8.4-8.3c-5.9,0.1-9.5,3.9-10,9.5v15.9h-4.4v-29.7h4.4v6.5
			c2.1-4.5,6.1-6.6,11.5-6.7C153.2,164,157.3,168.4,157.3,175.6z"/>
		<path fill="#8E8E8E" d="M171.8,185.4v8.5h-4.4v-41.8h4.4v27.3l15.3-15.2h5.2l-11.1,11.5l12.3,18.2h-5.2l-10.1-15L171.8,185.4z"/>
		<path fill="#8E8E8E" d="M204.4,155.7c0,1.7-1.2,3-2.9,3s-2.9-1.3-2.9-3c0-1.7,1.2-3,2.9-3S204.4,154,204.4,155.7z M199.4,193.9
			v-29.7h4.3v29.7H199.4z"/>
		<path fill="#8E8E8E" d="M241.5,175.6v18.3h-4.4v-17.1c0-5.2-3.2-8.3-8.4-8.3c-5.9,0.1-9.5,3.9-10,9.5v15.9h-4.4v-29.7h4.4v6.5
			c2.1-4.5,6.1-6.6,11.5-6.7C237.4,164,241.5,168.4,241.5,175.6z"/>
		<path fill="#8E8E8E" d="M277.2,190.8c0,8.7-5.9,14.1-14.9,14.1c-4.7-0.1-8.6-1.6-12.2-4.3l2-3.4c2.9,2.4,6,3.7,10,3.8
			c6.5,0,10.7-3.9,10.7-10.1v-4.5c-2.1,3.9-5.9,6.2-10.9,6.2c-8,0-13.5-5.9-13.5-14.4c0-8.3,5.5-14.1,13.4-14.2
			c5.1,0,8.9,2.3,11,6.2v-6h4.4V190.8z M272.8,178.4c0-6.2-4.2-10.5-10.1-10.5c-6,0-10.1,4.4-10.2,10.5c0.1,6.1,4.2,10.5,10.2,10.5
			C268.5,188.9,272.8,184.5,272.8,178.4z"/>
		<path fill="#8E8E8E" d="M174.6,207.7l-1.9,4.2c-3.5-2.4-7.7-3.3-10.9-3.3c-5.1,0-8.4,1.9-8.4,5.2c0,10.1,22.2,4.8,22.1,19.1
			c0,6.6-5.8,10.8-14.2,10.8c-5.7,0-11.4-2.5-15.1-6l2-4.1c3.7,3.5,8.7,5.6,13.1,5.6c5.7,0,9.2-2.3,9.2-6.1
			c0.1-10.4-22.1-4.8-22.1-19c0-6.2,5.5-10.2,13.6-10.2C166.7,204,171.3,205.5,174.6,207.7z"/>
		<path fill="#8E8E8E" d="M214.5,228.8c0,8.8-5.7,14.9-14.1,14.9c-5.3,0-9.3-2.4-11.5-6.5v17.3h-4.4v-40.6h4.4v6.4
			c2.2-4.2,6.2-6.6,11.4-6.6C208.7,213.7,214.5,219.9,214.5,228.8z M210.1,228.7c0-6.4-4.4-11-10.6-11c-6.2,0-10.6,4.6-10.6,11
			c0,6.5,4.4,11,10.6,11C205.7,239.7,210.1,235.1,210.1,228.7z"/>
		<path fill="#8E8E8E" d="M240.6,239c-2.4,3.2-6.1,4.8-10.9,4.8c-6.1,0-10.1-3.9-10.1-9.1c0-5.2,4.1-8.4,11.1-8.5h9.7v-1.7
			c0-4.3-2.7-6.9-7.9-6.9c-3.3,0-6.3,1.2-9.4,3.4l-1.9-3.2c3.8-2.5,7-4,12.1-4c7.3,0,11.4,3.9,11.4,10.2l0.1,19.6h-4.3V239z
			 M240.6,233.3v-3.5h-9.2c-5,0-7.5,1.5-7.5,4.8s2.6,5.4,6.8,5.4C235.6,240,239.4,237.4,240.6,233.3z"/>
		<path fill="#8E8E8E" d="M277.8,218.2l-2.4,3.1c-2.3-2.1-5.2-3.4-8.8-3.4c-6.1,0-10.5,4.4-10.5,10.9c0,6.5,4.4,11,10.5,11
			c3.9,0,7.1-1.3,9.2-3.8l2.5,2.7c-2.6,3.2-6.8,5.1-11.9,5.1c-8.6,0-14.7-6.1-14.7-15c0-8.8,6.1-15,14.7-15
			C271.2,213.7,275.1,215.4,277.8,218.2z"/>
		<path fill="#8E8E8E" d="M310.4,230.4h-24.2c0.8,5.8,5,9.5,10.7,9.5c3.7,0,6.9-1.3,9.2-3.7l2.4,2.6c-2.8,3.2-7,5-11.9,5
			c-8.7,0-14.7-6.1-14.7-15c0-8.8,6.1-15,14.7-15C306.1,213.7,310.9,220.4,310.4,230.4z M306.5,226.8c-0.3-5.7-4.1-9.3-9.9-9.3
			c-5.6,0-9.7,3.7-10.4,9.3H306.5z"/>
	</g>
	<g>
		<g>
			<path fill="#D9E0EE" d="M369.2,148.3c-2.1-11.5-5.5-22.8-10.4-33.8c-17.1-39.2-49.9-70-89.1-86.7C227.9,10,179.4,9.4,137,25.7
				c-35,13.2-63.1,37.6-81.8,67.6c2.5-4.1,5.3-8.1,8.2-12c11.8-9.7,25-17.8,39-24.1C134.7,42.6,171.6,37,208.2,41
				c30.2,3.3,60.3,13.3,83.5,33c18.2,15.5,31.4,36.4,40.1,58.7c6,15.5,10.9,32.3,13.4,49.3c-1.3,26.4-8.5,52.7-21.9,76.3
				c-23.1,40.7-62,67.6-105.3,78.1c-32.9,8-68.3,6.5-101.2-5.5c-2.5-0.9-5-1.9-7.4-2.9c8.1,5.7,16.7,10.8,25.6,15.2
				c44.5,21.9,96.6,23.7,140-2.1c36.7-21.9,74.7-60.3,87.5-101.6c0,0,0,0,0,0C371.7,209.7,374.8,178.4,369.2,148.3z"/>
		</g>
		<g>
			<path fill="#EFCEDB" d="M37.5,230.9C21,178.7,32.3,123.1,63.4,81.3c11.8-9.7,25-17.8,39-24.1C134.7,42.6,171.6,37,208.2,41
				c30.2,3.3,60.3,13.3,83.5,33c18.2,15.5,31.4,36.4,40.1,58.7c6,15.5,10.9,32.3,13.4,49.3c-0.1,1.5-0.2,3.1-0.3,4.6
				c4.6-60.2-21.2-122.1-72.6-157.6C218-8.5,146.6-9.1,89.9,24.1c-35.7,21.5-65.4,59.2-80.3,98c-32.2,83.8,20.7,172.9,99.8,205.9
				C75.8,304.4,49.9,270.1,37.5,230.9z"/>
		</g>
		<g>
			<path fill="#BFE4DF" d="M341.5,163.3c1.5,6.2,2.8,12.4,3.7,18.7c-1.3,26.4-8.5,52.7-21.9,76.3c-23.1,40.7-62,67.6-105.3,78.1
				c-32.9,8-68.3,6.5-101.2-5.5c-2.5-0.9-5-1.9-7.4-2.9c-33.5-23.6-59.5-57.9-71.9-97.2C21,178.7,32.3,123.1,63.4,81.3
				c4.4-3.6,9-7,13.7-10.2c-27,18-49,43.5-62.1,76.3c-28.8,82.3,8.9,177.7,87.8,216.2c75,36.6,169.6,13.1,215.6-57
				c9-14.6,16.2-30.3,21.2-46.7c4.8-16.4,7.1-33.5,7.4-50.5C347.5,194.3,345.3,178.6,341.5,163.3z"/>
		</g>
	</g>
</g>
</svg>
